Coordinates
version=1
nRows=14
nColumns=46
inDegrees=yes

Units are S.I. units (second, meters, Newtons, ...)
Angles are in degrees.

endheader
time	pelvis_tilt	pelvis_list	pelvis_rotation	pelvis_tx	pelvis_ty	pelvis_tz	bb_angle	bb_tx	bb_ty	bb_tz	hip_flexion_r	hip_adduction_r	hip_rotation_r	knee_angle_r	knee_angle_r_beta	ankle_angle_r	subtalar_angle_r	mtp_angle_r	crank_angle_r	hip_flexion_l	hip_adduction_l	hip_rotation_l	knee_angle_l	knee_angle_l_beta	ankle_angle_l	subtalar_angle_l	mtp_angle_l	crank_angle_l	lumbar_extension	lumbar_bending	lumbar_rotation	arm_flex_r	arm_add_r	arm_rot_r	elbow_flex_r	pro_sup_r	wrist_flex_r	wrist_dev_r	arm_flex_l	arm_add_l	arm_rot_l	elbow_flex_l	pro_sup_l	wrist_flex_l	wrist_dev_l
      2.50500000	    -12.12407662	     -9.53324657	      5.25175109	      0.29588541	      1.22089560	     -0.20681603	      0.00000000	      0.50000000	      0.00000000	      0.25000000	     72.65764431	     -8.82732920	     -9.83409414	    108.40966824	      1.89210565	      2.17134194	      1.24107971	      0.00000000	      0.00000000	     25.75256584	    -15.97225015	     -6.67990349	     23.90535359	      0.41722713	    -17.73911624	      7.94403996	      0.00000000	      0.00000000	    -57.07224467	      6.64745190	      7.20390015	     79.56750712	     -4.21170979	     44.04966201	     16.14969691	     34.70216249	      0.00000000	      0.00000000	     84.03849595	     -1.91141966	     67.15881326	     14.26564047	     31.49552192	      0.00000000	      0.00000000
      2.51000000	    -12.19978779	     -9.57910869	      5.18884012	      0.29546795	      1.22349569	     -0.20713617	      0.00000000	      0.50000000	      0.00000000	      0.25000000	     72.84316042	     -8.49191605	     -9.78556325	    107.77735758	      1.88106975	      2.87078524	      1.07379227	      0.00000000	      0.00000000	     25.92555691	    -16.13830903	     -6.79282485	     24.33376415	      0.42470430	    -19.30488571	      7.74784412	      0.00000000	      0.00000000	    -57.30807851	      6.74008951	      7.14041439	     79.91092501	     -3.96033796	     44.04804962	     16.17560998	     34.68431428	      0.00000000	      0.00000000	     84.32839829	     -2.03848400	     67.16613247	     14.12432674	     31.47826977	      0.00000000	      0.00000000
      2.51500000	    -12.25184076	     -9.66876036	      5.04435938	      0.29498824	      1.22621663	     -0.20741000	      0.00000000	      0.50000000	      0.00000000	      0.25000000	     72.93823079	     -8.04247235	     -9.73205745	    107.02078116	      1.86786500	      3.51811328	      1.01936059	      0.00000000	      0.00000000	     26.10685110	    -16.35908777	     -6.74428154	     24.84281971	      0.43358900	    -20.83832076	      7.47124228	      0.00000000	      0.00000000	    -57.57499996	      6.79628874	      7.09993085	     80.23746043	     -3.64764633	     44.05369348	     16.20428932	     34.66949508	      0.00000000	      0.00000000	     84.53193571	     -2.18660242	     67.17283056	     13.97425297	     31.45863062	      0.00000000	      0.00000000
      2.52000000	    -12.34707922	     -9.87128919	      4.88895019	      0.29461001	      1.22895910	     -0.20765076	      0.00000000	      0.50000000	      0.00000000	      0.25000000	     72.96516001	     -7.52960187	     -9.81475086	    106.12905852	      1.85230150	      4.21359192	      1.01201393	      0.00000000	      0.00000000	     26.40368974	    -16.68817608	     -6.64183355	     25.36069412	      0.44262761	    -22.89710815	      7.14461459	      0.00000000	      0.00000000	    -57.80737282	      7.01549529	      7.11541908	     80.63714565	     -3.08793662	     44.02549050	     16.00942944	     34.58736245	      0.00000000	      0.00000000	     84.74085812	     -2.50421908	     67.21475358	     13.66369053	     31.42653969	      0.00000000	      0.00000000
      2.52500000	    -12.41253006	     -9.87514740	      4.73011867	      0.29398911	      1.23149922	     -0.20775266	      0.00000000	      0.50000000	      0.00000000	      0.25000000	     73.00224164	     -7.08717038	     -9.68490730	    105.28302469	      1.83753543	      4.92895970	      0.90723336	      0.00000000	      0.00000000	     26.74492735	    -16.86935418	     -6.54662930	     26.08184999	      0.45521416	    -24.41364612	      7.02266360	      0.00000000	      0.00000000	    -58.04669846	      6.98494874	      7.01487228	     80.98491643	     -2.76437882	     44.00760241	     15.95243521	     34.54843086	      0.00000000	      0.00000000	     85.00174123	     -2.64096645	     67.22526327	     13.53170997	     31.40905427	      0.00000000	      0.00000000
      2.53000000	    -12.57864726	    -10.01978580	      4.50538876	      0.29329802	      1.23386824	     -0.20780591	      0.00000000	      0.50000000	      0.00000000	      0.25000000	     73.06093559	     -6.54834043	     -9.70471286	    104.28991960	      1.82020247	      5.56645998	      0.85402674	      0.00000000	      0.00000000	     27.30761632	    -17.18998674	     -6.28735435	     26.95425309	      0.47044046	    -25.92764655	      6.51350966	      0.00000000	      0.00000000	    -58.15249933	      7.13274225	      6.85558146	     81.68709821	     -1.43557216	     43.53534765	     14.36142557	     33.94587383	      0.00000000	      0.00000000	     85.17013929	     -3.09919661	     67.67302894	     13.07498561	     31.46513228	      0.00000000	      0.00000000
      2.53500000	    -12.63759645	     -9.97652701	      4.26747215	      0.29268328	      1.23625781	     -0.20776410	      0.00000000	      0.50000000	      0.00000000	      0.25000000	     72.96719069	     -6.06912462	     -9.53751934	    103.29363294	      1.80281399	      6.34659292	      0.81726732	      0.00000000	      0.00000000	     27.72154999	    -17.36521061	     -6.12985312	     27.84655599	      0.48601409	    -27.40789243	      6.53673673	      0.00000000	      0.00000000	    -58.38218769	      6.99506535	      6.76453539	     81.97063069	     -1.21601716	     43.51041786	     14.49006871	     33.93276831	      0.00000000	      0.00000000	     85.44143151	     -3.28222200	     67.66869608	     12.98007135	     31.45053382	      0.00000000	      0.00000000
      2.54000000	    -12.70214282	     -9.97584755	      3.99535344	      0.29199304	      1.23854105	     -0.20767689	      0.00000000	      0.50000000	      0.00000000	      0.25000000	     72.81781234	     -5.54378614	     -9.40905449	    102.21111686	      1.78392052	      7.08371521	      0.77037265	      0.00000000	      0.00000000	     28.20326740	    -17.57711635	     -5.78255120	     28.83907319	      0.50333678	    -28.69229190	      6.49445810	      0.00000000	      0.00000000	    -58.58583054	      6.86840159	      6.68610941	     82.24877164	     -0.94728186	     43.48357985	     14.60264997	     33.91589848	      0.00000000	      0.00000000	     85.67290059	     -3.52993194	     67.65403323	     12.82805840	     31.42446630	      0.00000000	      0.00000000
      2.54500000	    -12.87473979	    -10.12540277	      3.64969384	      0.29135829	      1.24051431	     -0.20758763	      0.00000000	      0.50000000	      0.00000000	      0.25000000	     72.69121254	     -4.89094219	     -9.40224194	    101.01666213	      1.76307335	      7.86623731	      0.81555714	      0.00000000	      0.00000000	     28.89669483	    -17.94182890	     -5.28242861	     29.98217338	      0.52328764	    -29.85808550	      6.52315057	      0.00000000	      0.00000000	    -58.64772046	      6.85946082	      6.66172635	     82.38855815	     -0.41722050	     43.44629489	     14.70288917	     33.87057555	      0.00000000	      0.00000000	     85.73350613	     -3.87379963	     67.66558523	     12.59531821	     31.39382849	      0.00000000	      0.00000000
      2.55000000	    -12.99050760	    -10.03818513	      3.35034285	      0.29069592	      1.24247087	     -0.20750339	      0.00000000	      0.50000000	      0.00000000	      0.25000000	     72.47825896	     -4.37932097	     -9.19965347	     99.83276006	      1.74241036	      8.81926005	      0.71247365	      0.00000000	      0.00000000	     29.49746330	    -18.05783995	     -4.78579621	     31.12340379	      0.54320587	    -30.88102764	      6.91837078	      0.00000000	      0.00000000	    -58.76638285	      6.64103501	      6.50629145	     82.59860609	     -0.20927800	     43.39213330	     14.76974709	     33.83853587	      0.00000000	      0.00000000	     85.93772446	     -4.06283623	     67.65105656	     12.49663102	     31.37476270	      0.00000000	      0.00000000
      2.55500000	    -13.17603416	    -10.17177738	      2.94814223	      0.29008131	      1.24404644	     -0.20728370	      0.00000000	      0.50000000	      0.00000000	      0.25000000	     72.21958427	     -3.73376881	     -9.19707439	     98.50785168	      1.71928635	      9.67062372	      0.73687955	      0.00000000	      0.00000000	     30.29101059	    -18.43058710	     -4.20123998	     32.48160029	      0.56691087	    -31.53526225	      7.03962361	      0.00000000	      0.00000000	    -58.74593385	      6.56589546	      6.49142783	     82.76357318	      0.07376999	     43.21687503	     14.80664633	     33.75094067	      0.00000000	      0.00000000	     85.91046334	     -4.40247967	     67.63923177	     12.34175269	     31.35103412	      0.00000000	      0.00000000
      2.56000000	    -13.28980145	    -10.16751346	      2.50721106	      0.28956462	      1.24561370	     -0.20700125	      0.00000000	      0.50000000	      0.00000000	      0.25000000	     71.82167419	     -3.09468006	     -9.06464404	     97.14610101	      1.69551932	     10.59489420	      0.62290366	      0.00000000	      0.00000000	     30.96656192	    -18.69122922	     -3.79749975	     33.87527572	      0.59123510	    -32.25475497	      7.11660599	      0.00000000	      0.00000000	    -58.79708875	      6.31579223	      6.43043657	     82.86632806	      0.35126513	     43.04241692	     14.97725839	     33.69292885	      0.00000000	      0.00000000	     85.93992217	     -4.66015042	     67.60553978	     12.25264417	     31.33109639	      0.00000000	      0.00000000
      2.56500000	    -13.56664904	    -10.03255842	      2.06260202	      0.28907688	      1.24658622	     -0.20686766	      0.00000000	      0.50000000	      0.00000000	      0.25000000	     71.54721506	     -2.59371824	     -8.83135008	     95.73803981	      1.67094401	     11.54144084	      0.53909420	      0.00000000	      0.00000000	     31.84176322	    -18.77509702	     -3.41378200	     35.37903103	      0.61748058	    -32.85447510	      7.06325065	      0.00000000	      0.00000000	    -58.62044822	      6.04988111	      6.32813630	     82.63860518	      1.28934003	     37.42180870	     15.45476035	     34.07957718	      0.00000000	      0.00000000	     85.48385537	     -3.87262328	     60.36013107	     12.07023511	     32.36731925	      0.00000000	      0.00000000
      2.57000000	    -13.67642120	     -9.85915992	      1.61133915	      0.28871291	      1.24771722	     -0.20656801	      0.00000000	      0.50000000	      0.00000000	      0.25000000	     71.00273514	     -2.09063686	     -8.58465221	     94.22572849	      1.64454920	     12.49454883	      0.56374812	      0.00000000	      0.00000000	     32.50072170	    -18.85672322	     -3.12905982	     36.87979759	      0.64367390	    -33.31282225	      7.00842878	      0.00000000	      0.00000000	    -58.61082558	      5.63999939	      6.21729910	     82.42966676	      1.87132159	     33.06933640	     16.07919529	     34.53456101	      0.00000000	      0.00000000	     85.24519317	     -3.09961810	     54.04533451	     11.82507818	     33.27639676	      0.00000000	      0.00000000
